<?xml version="1.0" encoding="utf-8"?>
<!DOCTYPE svg PUBLIC "-//W3C//DTD SVG 1.0//EN" "http://www.w3.org/TR/2001/REC-SVG-20010904/DTD/svg10.dtd">
<svg version="1.0" xmlns="http://www.w3.org/2000/svg" width="171px" height="125px" viewBox="0 0 171 125" preserveAspectRatio="xMidYMid meet">
 <g fill="#000000">
  <path d="M10.50 73.90 l0 -51.15 1.20 -2.60 c1.35 -2.80 3.85 -4.90 6.70 -5.45 1.35 -0.30 1.60 -0.20 1.60 0.65 0 0.65 -0.60 1.15 -1.85 1.60 -2.05 0.75 -3.20 1.90 -4.65 4.65 -1 1.80 -1 3 -1 52.65 0 50.40 0 50.75 -1 50.75 -1 0 -1 -0.35 -1 -51.10z"/>
  <path d="M92.25 119.05 c-2.10 -0.95 -5.35 -4.35 -17.50 -18.30 -3.55 -4.10 -9.65 -11.05 -13.50 -15.50 -8.25 -9.50 -18.35 -21.15 -25.70 -29.65 l-5.30 -6.20 -0.15 4.55 c-0.10 4.15 -0.25 4.55 -1.10 4.55 -0.95 0 -1 -0.35 -1 -5.55 l0 -5.50 2.15 0.15 c1.75 0.10 2.15 0.35 2.25 1.30 0.10 0.60 0.45 1.10 0.80 1.10 0.85 0 2.80 2.15 2.80 3.05 0 0.40 0.50 0.95 1.15 1.20 0.60 0.30 1.15 1 1.25 1.65 0.10 0.60 0.45 1.10 0.80 1.10 1 0 2.80 2.20 2.80 3.40 0 0.75 0.30 1.10 0.90 1.10 1.25 0 2.10 0.95 2.10 2.35 0 0.75 0.30 1.15 0.90 1.15 1.25 0 2.10 0.95 2.10 2.35 0 0.80 0.30 1.15 0.90 1.15 1.15 0 2.60 1.50 2.60 2.65 0 0.45 0.30 0.85 0.65 0.85 0.90 0 2.85 2.10 2.85 3.05 0 0.40 0.50 0.95 1.15 1.20 0.75 0.35 1.15 1 1.25 2.15 0.15 1.30 0.40 1.60 1.30 1.60 1.40 0 2.80 1.45 2.80 2.90 0 0.75 0.30 1.10 0.90 1.10 1.15 0 2.60 1.50 2.60 2.65 0 0.45 0.30 0.85 0.65 0.85 0.70 0 2.85 2.05 2.85 2.65 0 0.20 0.80 1.05 1.75 1.90 1.10 0.95 1.75 2 1.75 2.75 0 0.85 0.30 1.20 0.90 1.20 0.90 0 3.10 1.90 3.10 2.65 0 0.20 0.80 1.05 1.75 1.90 0.95 0.85 1.75 1.75 1.75 2.05 0 0.25 0.70 1.05 1.50 1.75 0.85 0.65 1.50 1.45 1.50 1.70 0 0.25 0.80 1.15 1.75 2 1.10 0.95 1.75 2 1.75 2.75 0 0.80 0.30 1.20 0.90 1.20 1.30 0 2.10 1 2.10 2.60 0 1.15 0.20 1.40 1.25 1.40 0.65 0 1.95 0.45 2.85 1 1.95 1.20 3.45 1.25 5.35 0.30 1.95 -1.05 4.55 -4.10 4.90 -5.85 0.20 -1 0.60 -1.45 1.20 -1.45 1.25 0 1.25 1.95 0 4.40 -2.50 4.85 -7.65 6.80 -12.30 4.65z"/>
  <path d="M28 98.25 c0 -19.90 0 -20.25 1 -20.25 1 0 1 0.35 1 20.25 0 19.90 0 20.25 -1 20.25 -1 0 -1 -0.35 -1 -20.25z"/>
  <path d="M82.85 84.60 c-0.50 -0.50 -0.85 -1.50 -0.85 -2.25 0 -1.05 -0.25 -1.30 -1.35 -1.45 -1.20 -0.15 -1.40 -0.40 -1.55 -2 -0.15 -1.70 -0.30 -1.90 -1.55 -1.90 -1.65 0 -2.55 -0.80 -2.55 -2.35 0 -0.80 -0.30 -1.15 -0.90 -1.15 -1.30 0 -2.60 -1.60 -2.60 -3.15 0 -1.10 -0.25 -1.35 -1.15 -1.35 -1.10 0 -3.35 -1.85 -3.35 -2.70 0 -0.25 -0.55 -0.85 -1.25 -1.40 -0.70 -0.55 -1.25 -1.20 -1.25 -1.45 0 -0.25 -0.90 -1.25 -2 -2.25 -1.10 -1 -2 -2.25 -2 -2.75 0 -0.55 -0.30 -0.95 -0.65 -0.95 -0.95 0 -2.85 -2.15 -2.85 -3.15 0 -0.45 -0.30 -0.85 -0.65 -0.85 -0.95 0 -2.35 -1.65 -2.35 -2.65 0 -0.45 -0.30 -0.85 -0.65 -0.85 -0.95 0 -3.85 -3.15 -3.85 -4.15 0 -0.45 -0.30 -0.85 -0.65 -0.85 -1 0 -2.35 -1.65 -2.35 -2.90 0 -0.75 -0.30 -1.10 -0.90 -1.10 -1.25 0 -2.60 -1.55 -2.60 -2.90 0 -0.75 -0.30 -1.10 -0.90 -1.10 -1.15 0 -3.10 -2 -3.10 -3.15 0 -0.45 -0.30 -0.85 -0.65 -0.85 -1 0 -2.35 -1.65 -2.35 -2.90 0 -0.75 -0.30 -1.10 -0.90 -1.10 -1.25 0 -2.60 -1.55 -2.60 -2.90 0 -0.75 -0.30 -1.10 -0.90 -1.10 -1.10 0 -2.60 -1.50 -2.60 -2.55 0 -0.40 -0.50 -0.95 -1.10 -1.20 -0.65 -0.30 -1.20 -1 -1.30 -1.60 -0.10 -0.65 -0.40 -1.15 -0.70 -1.15 -0.30 0 -1.65 -0.50 -2.95 -1.10 -2.55 -1.20 -3.35 -2.90 -1.45 -2.90 2.70 0 5.05 2.15 16.55 15.35 6.45 7.35 12.80 14.65 14.20 16.15 2.70 3 9.60 10.95 24.25 27.75 5 5.80 9.25 10.65 9.45 10.85 0.15 0.20 0.30 -4.20 0.35 -9.75 0 -9.45 0.10 -10.25 1.10 -12.20 0.65 -1.20 2.05 -2.75 3.20 -3.50 l2.10 -1.40 29.95 -0.15 c29.70 -0.10 30 -0.10 32.20 0.95 5.75 2.80 7.25 9.95 3.05 14.75 -2.55 2.90 -6.40 4.30 -6.40 2.35 0.05 -0.85 3.05 -2.65 4.40 -2.65 0.35 0 0.60 -0.30 0.60 -0.70 0 -0.40 0.50 -1.55 1.05 -2.55 0.75 -1.25 1 -2.25 0.75 -3.35 -0.45 -2.15 -3.25 -5.70 -5.10 -6.35 -2.30 -0.80 -58.15 -0.75 -60 0.05 -2.10 0.95 -3.95 3.10 -4.60 5.25 -0.35 1.25 -0.60 5.45 -0.60 10.75 0 8.70 0 8.80 -1.10 9.10 -2 0.50 -3.20 0.35 -4.05 -0.60z"/>
  <path d="M104 76.75 c0 -1.65 0.10 -1.75 1.75 -1.75 1.95 0 2.50 1.20 0.75 1.65 -0.55 0.15 -1 0.60 -1 1.05 0 0.45 -0.35 0.80 -0.75 0.80 -0.50 0 -0.75 -0.55 -0.75 -1.75z"/>
  <path d="M28 69.75 c0 -6.40 0.05 -6.75 1 -6.75 0.95 0 1 0.35 1 6.75 0 6.40 -0.05 6.75 -1 6.75 -0.95 0 -1 -0.35 -1 -6.75z"/>
  <path d="M91.75 32.65 c-4.80 -2.50 -6.90 -8.30 -4.60 -12.90 1.75 -3.60 8.35 -7.05 8.35 -4.35 0 0.80 -3.35 2.60 -4.90 2.60 -0.30 0 -0.60 0.25 -0.60 0.60 0 0.30 -0.50 1.60 -1.05 2.80 -0.95 1.90 -1 2.45 -0.50 4 0.80 2.60 3.65 5.50 5.80 5.90 1.25 0.20 1.75 0.55 1.75 1.25 0 1.20 -2.10 1.25 -4.25 0.10z"/>
  <path d="M150.50 32.50 c0 -0.55 0.35 -1 0.75 -1 1 0 4.75 -1.65 4.75 -2.10 0 -0.20 0.55 -1.20 1.25 -2.20 1.50 -2.20 1.60 -3.90 0.25 -6.10 -0.55 -0.90 -1 -1.95 -1 -2.35 0 -0.40 -0.25 -0.75 -0.60 -0.75 -1.45 0 -4.40 -1.75 -4.40 -2.60 0 -1.85 3.95 -0.45 6.35 2.25 1.45 1.65 2.65 4.50 2.65 6.35 0 1.85 -1.20 4.70 -2.65 6.35 -2.55 2.95 -7.35 4.35 -7.35 2.15z"/>
 </g>
 <g fill="#8c5cff" stroke="#ffffff" stroke-width="0.5">
  <path d="M11 73.50 c0 -49.70 0.05 -51.60 0.95 -53.40 1.70 -3.30 5.20 -5.60 8.45 -5.60 2.30 0 6.20 2.30 8.35 4.85 1.10 1.35 7.30 8.50 13.80 15.90 6.50 7.45 14.55 16.65 17.90 20.50 9.95 11.35 22.70 25.80 24.40 27.75 l1.60 1.75 0.05 -9.80 c0 -10.50 0.30 -12.30 2.45 -14.60 2.70 -2.95 1.35 -2.85 34.40 -2.85 29.05 0 30.45 0.05 31.95 0.95 2.90 1.75 4.40 4.30 4.60 7.75 0.15 2.70 0 3.30 -1.30 5.35 -1 1.55 -2.25 2.65 -3.70 3.40 -2.15 1.05 -2.70 1.05 -25.80 1.05 l-23.60 0 0 17.15 c0 10.40 -0.20 17.85 -0.55 19 -0.60 2.15 -2.95 5.05 -5 6.15 -2.15 1.10 -6.20 0.90 -8.50 -0.40 -1.10 -0.60 -4.45 -3.95 -7.60 -7.60 -3.05 -3.60 -10.55 -12.15 -16.60 -19.05 -12.40 -14.10 -16.45 -18.75 -28.45 -32.70 -4.60 -5.40 -8.55 -9.85 -8.75 -9.90 -0.15 -0.10 -0.30 16.95 -0.30 37.85 l0 38 -9.35 0 -9.40 0 0 -51.50z"/>
  <path d="M93 32.95 c-2.25 -0.65 -5.30 -3.65 -6.05 -5.85 -1.50 -4.50 0.60 -9.45 4.75 -11.40 l2.55 -1.20 29.15 0 c28.85 0 29.15 0 31.40 1.10 5.10 2.35 6.80 8.80 3.70 13.50 -2.85 4.35 -1.30 4.15 -34.50 4.25 -18.30 0.05 -29.90 -0.10 -31 -0.40z"/>
 </g>
</svg>